ffmpeg started on 2026-01-18 at 20:22:32
Report written to "C:\Dev\OSPanel\domains\Java-AT\modules\ffmpeg\FFMetrics\reports\psnr_report-6.txt"
Log level: 32
Command line:
ffmpeg -hide_banner -nostdin -r 24000/1001 -i "F:\\Convert\\files\\[DC] Make Heroine ga Oosugiru - 07_Telegram_HEVC(160).mkv" -r 24000/1001 -i "F:\\Convert\\files\\[DC] Make Heroine ga Oosugiru - 07_Telegram.mp4" -lavfi "[0:v]settb=AVTB,setpts=PTS-STARTPTS,format=pix_fmts=yuv420p10le,fps=24000/1001,scale=1920:1080:flags=lanczos:param0=3:out_range=limited:out_color_matrix=bt709:out_chroma_loc=left,setsar=1/1,setdar=(1920/1080)*(1/1),colorspace=format=yuv420p10:range=tv:primaries=bt709:trc=bt709:space=bt709:fast=0[main];[1:v]settb=AVTB,setpts=PTS-STARTPTS,format=pix_fmts=yuv420p,fps=24000/1001,scale=1920:1080:flags=lanczos:param0=3:out_range=limited:out_color_matrix=bt709:out_chroma_loc=left,setsar=1.000,setdar=1.778,colorspace=format=yuv420p:range=tv:primaries=bt709:trc=bt709:space=bt709:fast=0[ref];[main][ref]psnr=eof_action=endall:stats_file='C\\:/Dev/OSPanel/domains/Java-AT/modules/ffmpeg/FFMetrics/logs/psnr_logfile-6.txt'" -f null -
Input #0, matroska,webm, from 'F:\Convert\files\[DC] Make Heroine ga Oosugiru - 07_Telegram_HEVC(160).mkv':
  Metadata:
    COMPATIBLE_BRANDS: isomiso2avc1mp41
    MAJOR_BRAND     : isom
    MINOR_VERSION   : 512
    ENCODER         : Lavf61.7.100
  Duration: 00:24:06.79, start: -0.021000, bitrate: 998 kb/s
  Stream #0:0: Video: hevc (Main 10), yuv420p10le(tv, bt709, progressive), 1920x1080 [SAR 1:1 DAR 16:9], 23.98 fps, 23.98 tbr, 1k tbn (default)
      Metadata:
        HANDLER_NAME    : VideoHandler
        VENDOR_ID       : [0][0][0][0]
        ENCODER         : Lavc61.19.100 libx265
        BPS             : 801630
        DURATION        : 00:24:06.569708333
        NUMBER_OF_FRAMES: 34683
        NUMBER_OF_BYTES : 144951804
        _STATISTICS_WRITING_APP: mkvpropedit v94.0 ('Initiate') 64-bit
        _STATISTICS_WRITING_DATE_UTC: 2026-01-18 09:44:25
        _STATISTICS_TAGS: BPS DURATION NUMBER_OF_FRAMES NUMBER_OF_BYTES
  Stream #0:1: Audio: aac (LC), 48000 Hz, stereo, fltp (default)
      Metadata:
        HANDLER_NAME    : SoundHandler
        VENDOR_ID       : [0][0][0][0]
        ENCODER         : Lavc61.19.100 aac
        BPS             : 193194
        DURATION        : 00:24:06.784000000
        NUMBER_OF_FRAMES: 67819
        NUMBER_OF_BYTES : 34938755
        _STATISTICS_WRITING_APP: mkvpropedit v94.0 ('Initiate') 64-bit
        _STATISTICS_WRITING_DATE_UTC: 2026-01-18 09:44:25
        _STATISTICS_TAGS: BPS DURATION NUMBER_OF_FRAMES NUMBER_OF_BYTES
Input #1, mov,mp4,m4a,3gp,3g2,mj2, from 'F:\Convert\files\[DC] Make Heroine ga Oosugiru - 07_Telegram.mp4':
  Metadata:
    major_brand     : isom
    minor_version   : 512
    compatible_brands: isomiso2avc1mp41
    encoder         : Lavf60.16.100
  Duration: 00:24:06.74, start: 0.000000, bitrate: 3764 kb/s
  Stream #1:0[0x1](und): Video: h264 (High) (avc1 / 0x31637661), yuv420p(tv, bt709, progressive), 1920x1080 [SAR 1:1 DAR 16:9], 3616 kb/s, 23.98 fps, 23.98 tbr, 24k tbn (default)
      Metadata:
        handler_name    : VideoHandler
        vendor_id       : [0][0][0][0]
        encoder         : Lavc60.31.102 h264_qsv
  Stream #1:1[0x2](und): Audio: aac (HE-AACv2) (mp4a / 0x6134706D), 48000 Hz, stereo, fltp, 144 kb/s (default)
      Metadata:
        handler_name    : SoundHandler
        vendor_id       : [0][0][0][0]
Stream mapping:
  Stream #0:0 (hevc) -> settb:default
  Stream #1:0 (h264) -> settb:default
  psnr:default -> Stream #0:0 (wrapped_avframe)
  Stream #0:1 -> #0:1 (aac (native) -> pcm_s16le (native))
Output #0, null, to 'pipe:':
  Metadata:
    COMPATIBLE_BRANDS: isomiso2avc1mp41
    MAJOR_BRAND     : isom
    MINOR_VERSION   : 512
    encoder         : Lavf61.7.100
  Stream #0:0: Video: wrapped_avframe, yuv420p10le(tv, bt709, progressive), 1920x1080 [SAR 1:1 DAR 16:9], q=2-31, 200 kb/s, 23.98 fps, 23.98 tbn
      Metadata:
        encoder         : Lavc61.19.100 wrapped_avframe
  Stream #0:1: Audio: pcm_s16le, 48000 Hz, stereo, s16, 1536 kb/s (default)
      Metadata:
        HANDLER_NAME    : SoundHandler
        VENDOR_ID       : [0][0][0][0]
        _STATISTICS_TAGS: BPS DURATION NUMBER_OF_FRAMES NUMBER_OF_BYTES
        BPS             : 193194
        DURATION        : 00:24:06.784000000
        NUMBER_OF_FRAMES: 67819
        NUMBER_OF_BYTES : 34938755
        _STATISTICS_WRITING_APP: mkvpropedit v94.0 ('Initiate') 64-bit
        _STATISTICS_WRITING_DATE_UTC: 2026-01-18 09:44:25
        encoder         : Lavc61.19.100 pcm_s16le
frame=  147 fps=0.0 q=-0.0 size=N/A time=00:00:06.13 bitrate=N/A speed=11.7x    frame=  354 fps=342 q=-0.0 size=N/A time=00:00:14.76 bitrate=N/A speed=14.3x    frame=  571 fps=369 q=-0.0 size=N/A time=00:00:23.81 bitrate=N/A speed=15.4x    frame=  783 fps=381 q=-0.0 size=N/A time=00:00:32.65 bitrate=N/A speed=15.9x    frame=  946 fps=368 q=-0.0 size=N/A time=00:00:39.45 bitrate=N/A speed=15.4x    frame= 1118 fps=361 q=-0.0 size=N/A time=00:00:46.62 bitrate=N/A speed=15.1x    frame= 1283 fps=356 q=-0.0 size=N/A time=00:00:53.51 bitrate=N/A speed=14.8x    frame= 1449 fps=352 q=-0.0 size=N/A time=00:01:00.43 bitrate=N/A speed=14.7x    frame= 1601 fps=345 q=-0.0 size=N/A time=00:01:06.77 bitrate=N/A speed=14.4x    frame= 1773 fps=343 q=-0.0 size=N/A time=00:01:13.94 bitrate=N/A speed=14.3x    frame= 1942 fps=342 q=-0.0 size=N/A time=00:01:20.99 bitrate=N/A speed=14.3x    frame= 2079 fps=336 q=-0.0 size=N/A time=00:01:26.71 bitrate=N/A speed=  14x    frame= 2225 fps=332 q=-0.0 size=N/A time=00:01:32.80 bitrate=N/A speed=13.9x    frame= 2382 fps=330 q=-0.0 size=N/A time=00:01:39.34 bitrate=N/A speed=13.8x    frame= 2525 fps=326 q=-0.0 size=N/A time=00:01:45.31 bitrate=N/A speed=13.6x    frame= 2688 fps=326 q=-0.0 size=N/A time=00:01:52.11 bitrate=N/A speed=13.6x    frame= 2872 fps=328 q=-0.0 size=N/A time=00:01:59.78 bitrate=N/A speed=13.7x    frame= 3063 fps=330 q=-0.0 size=N/A time=00:02:07.75 bitrate=N/A speed=13.8x    frame= 3274 fps=334 q=-0.0 size=N/A time=00:02:16.55 bitrate=N/A speed=13.9x    frame= 3490 fps=338 q=-0.0 size=N/A time=00:02:25.56 bitrate=N/A speed=14.1x    frame= 3696 fps=341 q=-0.0 size=N/A time=00:02:34.15 bitrate=N/A speed=14.2x    frame= 3906 fps=345 q=-0.0 size=N/A time=00:02:42.91 bitrate=N/A speed=14.4x    frame= 4117 fps=347 q=-0.0 size=N/A time=00:02:51.71 bitrate=N/A speed=14.5x    frame= 4324 fps=349 q=-0.0 size=N/A time=00:03:00.34 bitrate=N/A speed=14.6x    frame= 4529 fps=351 q=-0.0 size=N/A time=00:03:08.89 bitrate=N/A speed=14.7x    frame= 4749 fps=354 q=-0.0 size=N/A time=00:03:18.07 bitrate=N/A speed=14.8x    frame= 4950 fps=355 q=-0.0 size=N/A time=00:03:26.45 bitrate=N/A speed=14.8x    frame= 5158 fps=357 q=-0.0 size=N/A time=00:03:35.13 bitrate=N/A speed=14.9x    frame= 5368 fps=359 q=-0.0 size=N/A time=00:03:43.89 bitrate=N/A speed=  15x    frame= 5570 fps=360 q=-0.0 size=N/A time=00:03:52.31 bitrate=N/A speed=  15x    frame= 5782 fps=362 q=-0.0 size=N/A time=00:04:01.15 bitrate=N/A speed=15.1x    frame= 5988 fps=363 q=-0.0 size=N/A time=00:04:09.74 bitrate=N/A speed=15.1x    frame= 6191 fps=364 q=-0.0 size=N/A time=00:04:18.21 bitrate=N/A speed=15.2x    frame= 6395 fps=365 q=-0.0 size=N/A time=00:04:26.72 bitrate=N/A speed=15.2x    frame= 6613 fps=366 q=-0.0 size=N/A time=00:04:35.81 bitrate=N/A speed=15.3x    frame= 6819 fps=367 q=-0.0 size=N/A time=00:04:44.40 bitrate=N/A speed=15.3x    frame= 7025 fps=368 q=-0.0 size=N/A time=00:04:53.00 bitrate=N/A speed=15.4x    frame= 7222 fps=369 q=-0.0 size=N/A time=00:05:01.21 bitrate=N/A speed=15.4x    frame= 7432 fps=370 q=-0.0 size=N/A time=00:05:09.97 bitrate=N/A speed=15.4x    frame= 7626 fps=370 q=-0.0 size=N/A time=00:05:18.06 bitrate=N/A speed=15.4x    frame= 7817 fps=370 q=-0.0 size=N/A time=00:05:26.03 bitrate=N/A speed=15.4x    frame= 8024 fps=371 q=-0.0 size=N/A time=00:05:34.66 bitrate=N/A speed=15.5x    frame= 8226 fps=371 q=-0.0 size=N/A time=00:05:43.09 bitrate=N/A speed=15.5x    frame= 8433 fps=372 q=-0.0 size=N/A time=00:05:51.72 bitrate=N/A speed=15.5x    frame= 8633 fps=372 q=-0.0 size=N/A time=00:06:00.06 bitrate=N/A speed=15.5x    frame= 8835 fps=373 q=-0.0 size=N/A time=00:06:08.49 bitrate=N/A speed=15.5x    frame= 9043 fps=373 q=-0.0 size=N/A time=00:06:17.16 bitrate=N/A speed=15.6x    frame= 9247 fps=374 q=-0.0 size=N/A time=00:06:25.67 bitrate=N/A speed=15.6x    frame= 9453 fps=374 q=-0.0 size=N/A time=00:06:34.26 bitrate=N/A speed=15.6x    frame= 9655 fps=375 q=-0.0 size=N/A time=00:06:42.69 bitrate=N/A speed=15.6x    frame= 9867 fps=375 q=-0.0 size=N/A time=00:06:51.53 bitrate=N/A speed=15.6x    frame=10071 fps=376 q=-0.0 size=N/A time=00:07:00.04 bitrate=N/A speed=15.7x    frame=10274 fps=376 q=-0.0 size=N/A time=00:07:08.51 bitrate=N/A speed=15.7x    frame=10480 fps=376 q=-0.0 size=N/A time=00:07:17.10 bitrate=N/A speed=15.7x    frame=10677 fps=376 q=-0.0 size=N/A time=00:07:25.31 bitrate=N/A speed=15.7x    frame=10878 fps=377 q=-0.0 size=N/A time=00:07:33.70 bitrate=N/A speed=15.7x    frame=11085 fps=377 q=-0.0 size=N/A time=00:07:42.33 bitrate=N/A speed=15.7x    frame=11272 fps=377 q=-0.0 size=N/A time=00:07:50.13 bitrate=N/A speed=15.7x    frame=11475 fps=377 q=-0.0 size=N/A time=00:07:58.60 bitrate=N/A speed=15.7x    frame=11674 fps=377 q=-0.0 size=N/A time=00:08:06.90 bitrate=N/A speed=15.7x    frame=11885 fps=378 q=-0.0 size=N/A time=00:08:15.70 bitrate=N/A speed=15.8x    frame=12096 fps=378 q=-0.0 size=N/A time=00:08:24.50 bitrate=N/A speed=15.8x    frame=12301 fps=379 q=-0.0 size=N/A time=00:08:33.05 bitrate=N/A speed=15.8x    frame=12504 fps=379 q=-0.0 size=N/A time=00:08:41.52 bitrate=N/A speed=15.8x    frame=12706 fps=379 q=-0.0 size=N/A time=00:08:49.94 bitrate=N/A speed=15.8x    frame=12914 fps=380 q=-0.0 size=N/A time=00:08:58.62 bitrate=N/A speed=15.8x    frame=13118 fps=380 q=-0.0 size=N/A time=00:09:07.12 bitrate=N/A speed=15.8x    frame=13317 fps=380 q=-0.0 size=N/A time=00:09:15.42 bitrate=N/A speed=15.8x    frame=13514 fps=380 q=-0.0 size=N/A time=00:09:23.64 bitrate=N/A speed=15.8x    frame=13724 fps=380 q=-0.0 size=N/A time=00:09:32.40 bitrate=N/A speed=15.9x    frame=13931 fps=380 q=-0.0 size=N/A time=00:09:41.03 bitrate=N/A speed=15.9x    frame=14116 fps=380 q=-0.0 size=N/A time=00:09:48.75 bitrate=N/A speed=15.9x    frame=14313 fps=380 q=-0.0 size=N/A time=00:09:56.97 bitrate=N/A speed=15.9x    frame=14515 fps=380 q=-0.0 size=N/A time=00:10:05.39 bitrate=N/A speed=15.9x    frame=14714 fps=381 q=-0.0 size=N/A time=00:10:13.69 bitrate=N/A speed=15.9x    frame=14929 fps=381 q=-0.0 size=N/A time=00:10:22.66 bitrate=N/A speed=15.9x    frame=15117 fps=381 q=-0.0 size=N/A time=00:10:30.50 bitrate=N/A speed=15.9x    frame=15300 fps=380 q=-0.0 size=N/A time=00:10:38.13 bitrate=N/A speed=15.9x    frame=15500 fps=380 q=-0.0 size=N/A time=00:10:46.47 bitrate=N/A speed=15.9x    frame=15706 fps=381 q=-0.0 size=N/A time=00:10:55.07 bitrate=N/A speed=15.9x    frame=15915 fps=381 q=-0.0 size=N/A time=00:11:03.78 bitrate=N/A speed=15.9x    frame=16120 fps=381 q=-0.0 size=N/A time=00:11:12.33 bitrate=N/A speed=15.9x    frame=16322 fps=381 q=-0.0 size=N/A time=00:11:20.76 bitrate=N/A speed=15.9x    frame=16523 fps=381 q=-0.0 size=N/A time=00:11:29.14 bitrate=N/A speed=15.9x    frame=16738 fps=382 q=-0.0 size=N/A time=00:11:38.11 bitrate=N/A speed=15.9x    frame=16951 fps=382 q=-0.0 size=N/A time=00:11:46.99 bitrate=N/A speed=15.9x    frame=17152 fps=382 q=-0.0 size=N/A time=00:11:55.38 bitrate=N/A speed=15.9x    frame=17360 fps=382 q=-0.0 size=N/A time=00:12:04.05 bitrate=N/A speed=15.9x    frame=17557 fps=382 q=-0.0 size=N/A time=00:12:12.27 bitrate=N/A speed=15.9x    frame=17751 fps=382 q=-0.0 size=N/A time=00:12:20.36 bitrate=N/A speed=15.9x    frame=17963 fps=383 q=-0.0 size=N/A time=00:12:29.20 bitrate=N/A speed=  16x    frame=18170 fps=383 q=-0.0 size=N/A time=00:12:37.84 bitrate=N/A speed=  16x    frame=18358 fps=383 q=-0.0 size=N/A time=00:12:45.68 bitrate=N/A speed=  16x    frame=18560 fps=383 q=-0.0 size=N/A time=00:12:54.10 bitrate=N/A speed=  16x    frame=18778 fps=383 q=-0.0 size=N/A time=00:13:03.19 bitrate=N/A speed=  16x    frame=18979 fps=383 q=-0.0 size=N/A time=00:13:11.58 bitrate=N/A speed=  16x    frame=19186 fps=383 q=-0.0 size=N/A time=00:13:20.21 bitrate=N/A speed=  16x    frame=19397 fps=384 q=-0.0 size=N/A time=00:13:29.01 bitrate=N/A speed=  16x    frame=19611 fps=384 q=-0.0 size=N/A time=00:13:37.94 bitrate=N/A speed=  16x    frame=19825 fps=384 q=-0.0 size=N/A time=00:13:46.86 bitrate=N/A speed=  16x    frame=20032 fps=384 q=-0.0 size=N/A time=00:13:55.50 bitrate=N/A speed=  16x    frame=20234 fps=384 q=-0.0 size=N/A time=00:14:03.92 bitrate=N/A speed=  16x    frame=20437 fps=385 q=-0.0 size=N/A time=00:14:12.39 bitrate=N/A speed=  16x    frame=20624 fps=384 q=-0.0 size=N/A time=00:14:20.19 bitrate=N/A speed=  16x    frame=20829 fps=384 q=-0.0 size=N/A time=00:14:28.74 bitrate=N/A speed=  16x    frame=21033 fps=384 q=-0.0 size=N/A time=00:14:37.25 bitrate=N/A speed=  16x    frame=21235 fps=385 q=-0.0 size=N/A time=00:14:45.67 bitrate=N/A speed=  16x    frame=21449 fps=385 q=-0.0 size=N/A time=00:14:54.60 bitrate=N/A speed=  16x    frame=21659 fps=385 q=-0.0 size=N/A time=00:15:03.36 bitrate=N/A speed=16.1x    frame=21869 fps=385 q=-0.0 size=N/A time=00:15:12.11 bitrate=N/A speed=16.1x    frame=22074 fps=385 q=-0.0 size=N/A time=00:15:20.66 bitrate=N/A speed=16.1x    frame=22280 fps=385 q=-0.0 size=N/A time=00:15:29.26 bitrate=N/A speed=16.1x    frame=22490 fps=386 q=-0.0 size=N/A time=00:15:38.02 bitrate=N/A speed=16.1x    frame=22697 fps=386 q=-0.0 size=N/A time=00:15:46.65 bitrate=N/A speed=16.1x    frame=22894 fps=386 q=-0.0 size=N/A time=00:15:54.87 bitrate=N/A speed=16.1x    frame=23101 fps=386 q=-0.0 size=N/A time=00:16:03.50 bitrate=N/A speed=16.1x    frame=23299 fps=386 q=-0.0 size=N/A time=00:16:11.76 bitrate=N/A speed=16.1x    frame=23510 fps=386 q=-0.0 size=N/A time=00:16:20.56 bitrate=N/A speed=16.1x    frame=23725 fps=386 q=-0.0 size=N/A time=00:16:29.53 bitrate=N/A speed=16.1x    frame=23933 fps=386 q=-0.0 size=N/A time=00:16:38.20 bitrate=N/A speed=16.1x    frame=24137 fps=386 q=-0.0 size=N/A time=00:16:46.71 bitrate=N/A speed=16.1x    frame=24339 fps=387 q=-0.0 size=N/A time=00:16:55.13 bitrate=N/A speed=16.1x    frame=24552 fps=387 q=-0.0 size=N/A time=00:17:04.02 bitrate=N/A speed=16.1x    frame=24760 fps=387 q=-0.0 size=N/A time=00:17:12.69 bitrate=N/A speed=16.1x    frame=24967 fps=387 q=-0.0 size=N/A time=00:17:21.33 bitrate=N/A speed=16.1x    frame=25171 fps=387 q=-0.0 size=N/A time=00:17:29.84 bitrate=N/A speed=16.1x    frame=25380 fps=387 q=-0.0 size=N/A time=00:17:38.55 bitrate=N/A speed=16.2x    frame=25591 fps=387 q=-0.0 size=N/A time=00:17:47.35 bitrate=N/A speed=16.2x    frame=25792 fps=387 q=-0.0 size=N/A time=00:17:55.74 bitrate=N/A speed=16.2x    frame=25995 fps=387 q=-0.0 size=N/A time=00:18:04.20 bitrate=N/A speed=16.2x    frame=26198 fps=388 q=-0.0 size=N/A time=00:18:12.67 bitrate=N/A speed=16.2x    frame=26420 fps=388 q=-0.0 size=N/A time=00:18:21.93 bitrate=N/A speed=16.2x    frame=26625 fps=388 q=-0.0 size=N/A time=00:18:30.48 bitrate=N/A speed=16.2x    frame=26833 fps=388 q=-0.0 size=N/A time=00:18:39.15 bitrate=N/A speed=16.2x    frame=27019 fps=388 q=-0.0 size=N/A time=00:18:46.91 bitrate=N/A speed=16.2x    frame=27210 fps=388 q=-0.0 size=N/A time=00:18:54.88 bitrate=N/A speed=16.2x    frame=27415 fps=388 q=-0.0 size=N/A time=00:19:03.43 bitrate=N/A speed=16.2x    frame=27617 fps=388 q=-0.0 size=N/A time=00:19:11.85 bitrate=N/A speed=16.2x    frame=27817 fps=388 q=-0.0 size=N/A time=00:19:20.20 bitrate=N/A speed=16.2x    frame=28014 fps=388 q=-0.0 size=N/A time=00:19:28.41 bitrate=N/A speed=16.2x    frame=28211 fps=388 q=-0.0 size=N/A time=00:19:36.63 bitrate=N/A speed=16.2x    frame=28427 fps=388 q=-0.0 size=N/A time=00:19:45.64 bitrate=N/A speed=16.2x    frame=28627 fps=388 q=-0.0 size=N/A time=00:19:53.98 bitrate=N/A speed=16.2x    frame=28808 fps=388 q=-0.0 size=N/A time=00:20:01.53 bitrate=N/A speed=16.2x    frame=28980 fps=387 q=-0.0 size=N/A time=00:20:08.70 bitrate=N/A speed=16.2x    frame=29165 fps=387 q=-0.0 size=N/A time=00:20:16.42 bitrate=N/A speed=16.1x    frame=29365 fps=387 q=-0.0 size=N/A time=00:20:24.76 bitrate=N/A speed=16.1x    frame=29537 fps=387 q=-0.0 size=N/A time=00:20:31.93 bitrate=N/A speed=16.1x    frame=29719 fps=387 q=-0.0 size=N/A time=00:20:39.52 bitrate=N/A speed=16.1x    frame=29901 fps=386 q=-0.0 size=N/A time=00:20:47.12 bitrate=N/A speed=16.1x    frame=30080 fps=386 q=-0.0 size=N/A time=00:20:54.58 bitrate=N/A speed=16.1x    frame=30274 fps=386 q=-0.0 size=N/A time=00:21:02.67 bitrate=N/A speed=16.1x    frame=30477 fps=386 q=-0.0 size=N/A time=00:21:11.14 bitrate=N/A speed=16.1x    frame=30672 fps=386 q=-0.0 size=N/A time=00:21:19.27 bitrate=N/A speed=16.1x    frame=30878 fps=386 q=-0.0 size=N/A time=00:21:27.86 bitrate=N/A speed=16.1x    frame=31085 fps=386 q=-0.0 size=N/A time=00:21:36.50 bitrate=N/A speed=16.1x    frame=31289 fps=386 q=-0.0 size=N/A time=00:21:45.01 bitrate=N/A speed=16.1x    frame=31480 fps=386 q=-0.0 size=N/A time=00:21:52.97 bitrate=N/A speed=16.1x    frame=31682 fps=386 q=-0.0 size=N/A time=00:22:01.40 bitrate=N/A speed=16.1x    frame=31878 fps=386 q=-0.0 size=N/A time=00:22:09.57 bitrate=N/A speed=16.1x    frame=32066 fps=386 q=-0.0 size=N/A time=00:22:17.41 bitrate=N/A speed=16.1x    frame=32273 fps=386 q=-0.0 size=N/A time=00:22:26.05 bitrate=N/A speed=16.1x    frame=32476 fps=386 q=-0.0 size=N/A time=00:22:34.51 bitrate=N/A speed=16.1x    frame=32655 fps=386 q=-0.0 size=N/A time=00:22:41.98 bitrate=N/A speed=16.1x    frame=32827 fps=386 q=-0.0 size=N/A time=00:22:49.15 bitrate=N/A speed=16.1x    frame=33008 fps=385 q=-0.0 size=N/A time=00:22:56.70 bitrate=N/A speed=16.1x    frame=33193 fps=385 q=-0.0 size=N/A time=00:23:04.42 bitrate=N/A speed=16.1x    frame=33384 fps=385 q=-0.0 size=N/A time=00:23:12.39 bitrate=N/A speed=16.1x    frame=33551 fps=385 q=-0.0 size=N/A time=00:23:19.35 bitrate=N/A speed=  16x    frame=33712 fps=384 q=-0.0 size=N/A time=00:23:26.07 bitrate=N/A speed=  16x    frame=33838 fps=383 q=-0.0 size=N/A time=00:23:31.32 bitrate=N/A speed=  16x    frame=33991 fps=383 q=-0.0 size=N/A time=00:23:37.70 bitrate=N/A speed=  16x    frame=34152 fps=383 q=-0.0 size=N/A time=00:23:44.42 bitrate=N/A speed=  16x    frame=34315 fps=382 q=-0.0 size=N/A time=00:23:51.22 bitrate=N/A speed=15.9x    frame=34445 fps=381 q=-0.0 size=N/A time=00:23:56.64 bitrate=N/A speed=15.9x    frame=34635 fps=381 q=-0.0 size=N/A time=00:24:04.56 bitrate=N/A speed=15.9x    [Parsed_psnr_16 @ 000002637deb1cc0] PSNR y:49.080625 u:50.355160 v:50.404228 average:49.471985 min:38.045602 max:inf
[out#0/null @ 0000026376b03a00] video:14903KiB audio:271276KiB subtitle:0KiB other streams:0KiB global headers:0KiB muxing overhead: unknown
frame=34683 fps=381 q=-0.0 Lsize=N/A time=00:24:06.57 bitrate=N/A speed=15.9x    
